<svg width="400" height="420" viewBox="0 0 400 420" xmlns="http://www.w3.org/2000/svg">

<circle cx="200" cy="170" r="130" fill="#66bb6a" opacity="0.15"/>
<circle cx="200" cy="170" r="110" fill="#66bb6a" opacity="0.25"/>

<ellipse cx="138" cy="90" rx="32" ry="30" fill="#1a1a1a"/>
<ellipse cx="262" cy="90" rx="32" ry="30" fill="#1a1a1a"/>

<ellipse cx="138" cy="93" rx="18" ry="16" fill="#FFB6C1"/>
<ellipse cx="262" cy="93" rx="18" ry="16" fill="#FFB6C1"/>

<ellipse cx="200" cy="175" rx="85" ry="80" fill="#ffffff" stroke="#e0e0e0" stroke-width="1"/>

<ellipse cx="165" cy="155" rx="30" ry="28" fill="#1a1a1a"/>
<ellipse cx="235" cy="155" rx="30" ry="28" fill="#1a1a1a"/>

<ellipse cx="170" cy="153" rx="14" ry="16" fill="#ffffff"/>
<ellipse cx="230" cy="153" rx="14" ry="16" fill="#ffffff"/>

<circle cx="174" cy="151" r="8" fill="#1a1a1a"/>
<circle cx="234" cy="151" r="8" fill="#1a1a1a"/>

<circle cx="177" cy="148" r="3" fill="#ffffff"/>
<circle cx="237" cy="148" r="3" fill="#ffffff"/>

<ellipse cx="200" cy="185" rx="12" ry="8" fill="#1a1a1a"/>

<path d="M192 193 Q200 203 208 193" fill="none" stroke="#1a1a1a" stroke-width="2" stroke-linecap="round"/>

<circle cx="160" cy="190" r="16" fill="#FFB6C1" opacity="0.5"/>
<circle cx="240" cy="190" r="16" fill="#FFB6C1" opacity="0.5"/>

<ellipse cx="128" cy="225" rx="18" ry="12" fill="#1a1a1a" transform="rotate(-20 128 225)"/>
<ellipse cx="272" cy="225" rx="18" ry="12" fill="#1a1a1a" transform="rotate(20 272 225)"/>

<circle cx="200" cy="115" r="6" fill="#66bb6a"/>
<path d="M200 109 Q205 95 210 100" fill="none" stroke="#66bb6a" stroke-width="2" stroke-linecap="round"/>
<ellipse cx="212" cy="97" rx="5" ry="3" fill="#66bb6a" transform="rotate(-30 212 97)"/>

<text x="200" y="340" text-anchor="middle" font-family="Georgia, serif" font-size="42" font-weight="700">
  <tspan fill="#66bb6a">RZ</tspan><tspan fill="#2d2d2d">Pan</tspan><tspan fill="#66bb6a">'</tspan><tspan fill="#2d2d2d">Da</tspan>
</text>

<text x="200" y="370" text-anchor="middle" font-family="sans-serif" font-size="13" fill="#666666" letter-spacing="2">CONFORMITÉ HACCP · PETITE ENFANCE</text>

</svg>